<svg width="120" height="32" viewBox="0 0 120 32" fill="none" xmlns="http://www.w3.org/2000/svg">
<ellipse cx="15.5" cy="15.6978" rx="15.5" ry="15.6978" fill="white"/>
<ellipse cx="20" cy="17.2169" rx="5" ry="5.06381" fill="black"/>
<path d="M47.455 12.2166C47.385 12.1466 47.255 12.0516 47.065 11.9316C46.885 11.8116 46.66 11.6966 46.39 11.5866C46.13 11.4766 45.845 11.3816 45.535 11.3016C45.225 11.2116 44.91 11.1666 44.59 11.1666C44.03 11.1666 43.605 11.2716 43.315 11.4816C43.035 11.6916 42.895 11.9866 42.895 12.3666C42.895 12.6566 42.985 12.8866 43.165 13.0566C43.345 13.2266 43.615 13.3716 43.975 13.4916C44.335 13.6116 44.785 13.7416 45.325 13.8816C46.025 14.0516 46.63 14.2616 47.14 14.5116C47.66 14.7516 48.055 15.0716 48.325 15.4716C48.605 15.8616 48.745 16.3816 48.745 17.0316C48.745 17.6016 48.64 18.0916 48.43 18.5016C48.22 18.9016 47.93 19.2266 47.56 19.4766C47.19 19.7266 46.77 19.9116 46.3 20.0316C45.83 20.1416 45.33 20.1966 44.8 20.1966C44.27 20.1966 43.74 20.1416 43.21 20.0316C42.68 19.9216 42.17 19.7666 41.68 19.5666C41.19 19.3566 40.74 19.1066 40.33 18.8166L41.245 17.0316C41.335 17.1216 41.495 17.2416 41.725 17.3916C41.955 17.5316 42.235 17.6766 42.565 17.8266C42.895 17.9666 43.255 18.0866 43.645 18.1866C44.035 18.2866 44.43 18.3366 44.83 18.3366C45.39 18.3366 45.815 18.2416 46.105 18.0516C46.395 17.8616 46.54 17.5916 46.54 17.2416C46.54 16.9216 46.425 16.6716 46.195 16.4916C45.965 16.3116 45.645 16.1566 45.235 16.0266C44.825 15.8866 44.34 15.7366 43.78 15.5766C43.11 15.3866 42.55 15.1766 42.1 14.9466C41.65 14.7066 41.315 14.4066 41.095 14.0466C40.875 13.6866 40.765 13.2366 40.765 12.6966C40.765 11.9666 40.935 11.3566 41.275 10.8666C41.625 10.3666 42.095 9.99157 42.685 9.74157C43.275 9.48157 43.93 9.35157 44.65 9.35157C45.15 9.35157 45.62 9.40657 46.06 9.51657C46.51 9.62657 46.93 9.77157 47.32 9.95157C47.71 10.1316 48.06 10.3266 48.37 10.5366L47.455 12.2166ZM50.3092 20.0766V9.42657H54.8242C55.3142 9.42657 55.7642 9.52657 56.1742 9.72657C56.5842 9.92657 56.9392 10.1966 57.2392 10.5366C57.5492 10.8766 57.7892 11.2566 57.9592 11.6766C58.1292 12.0966 58.2142 12.5266 58.2142 12.9666C58.2142 13.5666 58.0742 14.1366 57.7942 14.6766C57.5142 15.2166 57.1292 15.6566 56.6392 15.9966C56.1492 16.3366 55.5692 16.5066 54.8992 16.5066H52.3792V20.0766H50.3092ZM52.3792 14.6916H54.7792C55.0292 14.6916 55.2542 14.6216 55.4542 14.4816C55.6542 14.3416 55.8142 14.1416 55.9342 13.8816C56.0542 13.6116 56.1142 13.3066 56.1142 12.9666C56.1142 12.5966 56.0442 12.2816 55.9042 12.0216C55.7742 11.7616 55.5992 11.5666 55.3792 11.4366C55.1692 11.3066 54.9392 11.2416 54.6892 11.2416H52.3792V14.6916ZM64.1999 20.1516C63.4199 20.1516 62.7099 20.0016 62.0699 19.7016C61.4399 19.4016 60.8949 18.9966 60.4349 18.4866C59.9849 17.9666 59.6349 17.3866 59.3849 16.7466C59.1349 16.0966 59.0099 15.4316 59.0099 14.7516C59.0099 14.0416 59.1399 13.3666 59.3999 12.7266C59.6699 12.0766 60.0349 11.5016 60.4949 11.0016C60.9649 10.4916 61.5149 10.0916 62.1449 9.80157C62.7849 9.50157 63.4849 9.35157 64.2449 9.35157C65.0149 9.35157 65.7149 9.50657 66.3449 9.81657C66.9849 10.1266 67.5299 10.5416 67.9799 11.0616C68.4299 11.5816 68.7799 12.1616 69.0299 12.8016C69.2799 13.4416 69.4049 14.1016 69.4049 14.7816C69.4049 15.4816 69.2749 16.1566 69.0149 16.8066C68.7549 17.4466 68.3899 18.0216 67.9199 18.5316C67.4599 19.0316 66.9099 19.4266 66.2699 19.7166C65.6399 20.0066 64.9499 20.1516 64.1999 20.1516ZM61.1099 14.7516C61.1099 15.2116 61.1799 15.6566 61.3199 16.0866C61.4599 16.5166 61.6599 16.9016 61.9199 17.2416C62.1899 17.5716 62.5149 17.8366 62.8949 18.0366C63.2849 18.2266 63.7249 18.3216 64.2149 18.3216C64.7149 18.3216 65.1599 18.2216 65.5499 18.0216C65.9399 17.8116 66.2649 17.5366 66.5249 17.1966C66.7849 16.8466 66.9799 16.4616 67.1099 16.0416C67.2499 15.6116 67.3199 15.1816 67.3199 14.7516C67.3199 14.2916 67.2449 13.8516 67.0949 13.4316C66.9549 13.0016 66.7499 12.6216 66.4799 12.2916C66.2199 11.9516 65.8949 11.6866 65.5049 11.4966C65.1249 11.2966 64.6949 11.1966 64.2149 11.1966C63.7049 11.1966 63.2549 11.3016 62.8649 11.5116C62.4849 11.7116 62.1649 11.9816 61.9049 12.3216C61.6449 12.6616 61.4449 13.0416 61.3049 13.4616C61.1749 13.8816 61.1099 14.3116 61.1099 14.7516ZM70.9928 20.0766V9.42657H75.7028C76.1928 9.42657 76.6428 9.52657 77.0528 9.72657C77.4728 9.92657 77.8328 10.1966 78.1328 10.5366C78.4428 10.8766 78.6778 11.2566 78.8378 11.6766C79.0078 12.0966 79.0928 12.5266 79.0928 12.9666C79.0928 13.4166 79.0128 13.8516 78.8528 14.2716C78.7028 14.6816 78.4828 15.0416 78.1928 15.3516C77.9028 15.6616 77.5628 15.9016 77.1728 16.0716L79.6028 20.0766H77.3228L75.1328 16.5066H73.0628V20.0766H70.9928ZM73.0628 14.6916H75.6578C75.9178 14.6916 76.1478 14.6166 76.3478 14.4666C76.5478 14.3066 76.7078 14.0966 76.8278 13.8366C76.9478 13.5766 77.0078 13.2866 77.0078 12.9666C77.0078 12.6266 76.9378 12.3316 76.7978 12.0816C76.6578 11.8216 76.4778 11.6166 76.2578 11.4666C76.0478 11.3166 75.8178 11.2416 75.5678 11.2416H73.0628V14.6916ZM88.8162 11.2416H85.4112V20.0766H83.3562V11.2416H79.9512V9.42657H88.8162V11.2416ZM90.1383 20.0766V9.42657H92.2083V18.2616H97.6383V20.0766H90.1383ZM98.8981 20.0766V9.42657H100.968V20.0766H98.8981ZM103.19 20.0766V9.42657H105.26V18.2616H110.69V20.0766H103.19ZM119.345 18.2616V20.0766H111.95V9.42657H119.21V11.2416H114.02V13.8066H118.505V15.4866H114.02V18.2616H119.345Z" fill="white"/>
</svg>
