<svg width="120" height="32" viewBox="0 0 120 32" fill="none" xmlns="http://www.w3.org/2000/svg">
<ellipse cx="15.5" cy="15.6978" rx="15.5" ry="15.6978" fill="white"/>
<ellipse cx="20" cy="17.2169" rx="5" ry="5.06381" fill="black"/>
<path d="M47.455 12.2165C47.385 12.1465 47.255 12.0515 47.065 11.9315C46.885 11.8115 46.66 11.6965 46.39 11.5865C46.13 11.4765 45.845 11.3815 45.535 11.3015C45.225 11.2115 44.91 11.1665 44.59 11.1665C44.03 11.1665 43.605 11.2715 43.315 11.4815C43.035 11.6915 42.895 11.9865 42.895 12.3665C42.895 12.6565 42.985 12.8865 43.165 13.0565C43.345 13.2265 43.615 13.3715 43.975 13.4915C44.335 13.6115 44.785 13.7415 45.325 13.8815C46.025 14.0515 46.63 14.2615 47.14 14.5115C47.66 14.7515 48.055 15.0715 48.325 15.4715C48.605 15.8615 48.745 16.3815 48.745 17.0315C48.745 17.6015 48.64 18.0915 48.43 18.5015C48.22 18.9015 47.93 19.2265 47.56 19.4765C47.19 19.7265 46.77 19.9115 46.3 20.0315C45.83 20.1415 45.33 20.1965 44.8 20.1965C44.27 20.1965 43.74 20.1415 43.21 20.0315C42.68 19.9215 42.17 19.7665 41.68 19.5665C41.19 19.3565 40.74 19.1065 40.33 18.8165L41.245 17.0315C41.335 17.1215 41.495 17.2415 41.725 17.3915C41.955 17.5315 42.235 17.6765 42.565 17.8265C42.895 17.9665 43.255 18.0865 43.645 18.1865C44.035 18.2865 44.43 18.3365 44.83 18.3365C45.39 18.3365 45.815 18.2415 46.105 18.0515C46.395 17.8615 46.54 17.5915 46.54 17.2415C46.54 16.9215 46.425 16.6715 46.195 16.4915C45.965 16.3115 45.645 16.1565 45.235 16.0265C44.825 15.8865 44.34 15.7365 43.78 15.5765C43.11 15.3865 42.55 15.1765 42.1 14.9465C41.65 14.7065 41.315 14.4065 41.095 14.0465C40.875 13.6865 40.765 13.2365 40.765 12.6965C40.765 11.9665 40.935 11.3565 41.275 10.8665C41.625 10.3665 42.095 9.99154 42.685 9.74154C43.275 9.48154 43.93 9.35154 44.65 9.35154C45.15 9.35154 45.62 9.40654 46.06 9.51654C46.51 9.62654 46.93 9.77154 47.32 9.95154C47.71 10.1315 48.06 10.3265 48.37 10.5365L47.455 12.2165ZM50.3092 20.0765V9.42654H54.8242C55.3142 9.42654 55.7642 9.52654 56.1742 9.72654C56.5842 9.92654 56.9392 10.1965 57.2392 10.5365C57.5492 10.8765 57.7892 11.2565 57.9592 11.6765C58.1292 12.0965 58.2142 12.5265 58.2142 12.9665C58.2142 13.5665 58.0742 14.1365 57.7942 14.6765C57.5142 15.2165 57.1292 15.6565 56.6392 15.9965C56.1492 16.3365 55.5692 16.5065 54.8992 16.5065H52.3792V20.0765H50.3092ZM52.3792 14.6915H54.7792C55.0292 14.6915 55.2542 14.6215 55.4542 14.4815C55.6542 14.3415 55.8142 14.1415 55.9342 13.8815C56.0542 13.6115 56.1142 13.3065 56.1142 12.9665C56.1142 12.5965 56.0442 12.2815 55.9042 12.0215C55.7742 11.7615 55.5992 11.5665 55.3792 11.4365C55.1692 11.3065 54.9392 11.2415 54.6892 11.2415H52.3792V14.6915ZM64.1999 20.1515C63.4199 20.1515 62.7099 20.0015 62.0699 19.7015C61.4399 19.4015 60.8949 18.9965 60.4349 18.4865C59.9849 17.9665 59.6349 17.3865 59.3849 16.7465C59.1349 16.0965 59.0099 15.4315 59.0099 14.7515C59.0099 14.0415 59.1399 13.3665 59.3999 12.7265C59.6699 12.0765 60.0349 11.5015 60.4949 11.0015C60.9649 10.4915 61.5149 10.0915 62.1449 9.80154C62.7849 9.50154 63.4849 9.35154 64.2449 9.35154C65.0149 9.35154 65.7149 9.50654 66.3449 9.81654C66.9849 10.1265 67.5299 10.5415 67.9799 11.0615C68.4299 11.5815 68.7799 12.1615 69.0299 12.8015C69.2799 13.4415 69.4049 14.1015 69.4049 14.7815C69.4049 15.4815 69.2749 16.1565 69.0149 16.8065C68.7549 17.4465 68.3899 18.0215 67.9199 18.5315C67.4599 19.0315 66.9099 19.4265 66.2699 19.7165C65.6399 20.0065 64.9499 20.1515 64.1999 20.1515ZM61.1099 14.7515C61.1099 15.2115 61.1799 15.6565 61.3199 16.0865C61.4599 16.5165 61.6599 16.9015 61.9199 17.2415C62.1899 17.5715 62.5149 17.8365 62.8949 18.0365C63.2849 18.2265 63.7249 18.3215 64.2149 18.3215C64.7149 18.3215 65.1599 18.2215 65.5499 18.0215C65.9399 17.8115 66.2649 17.5365 66.5249 17.1965C66.7849 16.8465 66.9799 16.4615 67.1099 16.0415C67.2499 15.6115 67.3199 15.1815 67.3199 14.7515C67.3199 14.2915 67.2449 13.8515 67.0949 13.4315C66.9549 13.0015 66.7499 12.6215 66.4799 12.2915C66.2199 11.9515 65.8949 11.6865 65.5049 11.4965C65.1249 11.2965 64.6949 11.1965 64.2149 11.1965C63.7049 11.1965 63.2549 11.3015 62.8649 11.5115C62.4849 11.7115 62.1649 11.9815 61.9049 12.3215C61.6449 12.6615 61.4449 13.0415 61.3049 13.4615C61.1749 13.8815 61.1099 14.3115 61.1099 14.7515ZM70.9928 20.0765V9.42654H75.7028C76.1928 9.42654 76.6428 9.52654 77.0528 9.72654C77.4728 9.92654 77.8328 10.1965 78.1328 10.5365C78.4428 10.8765 78.6778 11.2565 78.8378 11.6765C79.0078 12.0965 79.0928 12.5265 79.0928 12.9665C79.0928 13.4165 79.0128 13.8515 78.8528 14.2715C78.7028 14.6815 78.4828 15.0415 78.1928 15.3515C77.9028 15.6615 77.5628 15.9015 77.1728 16.0715L79.6028 20.0765H77.3228L75.1328 16.5065H73.0628V20.0765H70.9928ZM73.0628 14.6915H75.6578C75.9178 14.6915 76.1478 14.6165 76.3478 14.4665C76.5478 14.3065 76.7078 14.0965 76.8278 13.8365C76.9478 13.5765 77.0078 13.2865 77.0078 12.9665C77.0078 12.6265 76.9378 12.3315 76.7978 12.0815C76.6578 11.8215 76.4778 11.6165 76.2578 11.4665C76.0478 11.3165 75.8178 11.2415 75.5678 11.2415H73.0628V14.6915ZM88.8162 11.2415H85.4112V20.0765H83.3562V11.2415H79.9512V9.42654H88.8162V11.2415ZM90.1383 20.0765V9.42654H92.2083V18.2615H97.6383V20.0765H90.1383ZM98.8981 20.0765V9.42654H100.968V20.0765H98.8981ZM103.19 20.0765V9.42654H105.26V18.2615H110.69V20.0765H103.19ZM119.345 18.2615V20.0765H111.95V9.42654H119.21V11.2415H114.02V13.8065H118.505V15.4865H114.02V18.2615H119.345Z" fill="white"/>
</svg>
