<svg width="120" height="31" viewBox="0 0 120 31" fill="none" xmlns="http://www.w3.org/2000/svg">
<circle cx="15.5" cy="15.5" r="15.5" fill="black"/>
<circle cx="20" cy="17" r="5" fill="white"/>
<path d="M47.455 12.14C47.385 12.07 47.255 11.975 47.065 11.855C46.885 11.735 46.66 11.62 46.39 11.51C46.13 11.4 45.845 11.305 45.535 11.225C45.225 11.135 44.91 11.09 44.59 11.09C44.03 11.09 43.605 11.195 43.315 11.405C43.035 11.615 42.895 11.91 42.895 12.29C42.895 12.58 42.985 12.81 43.165 12.98C43.345 13.15 43.615 13.295 43.975 13.415C44.335 13.535 44.785 13.665 45.325 13.805C46.025 13.975 46.63 14.185 47.14 14.435C47.66 14.675 48.055 14.995 48.325 15.395C48.605 15.785 48.745 16.305 48.745 16.955C48.745 17.525 48.64 18.015 48.43 18.425C48.22 18.825 47.93 19.15 47.56 19.4C47.19 19.65 46.77 19.835 46.3 19.955C45.83 20.065 45.33 20.12 44.8 20.12C44.27 20.12 43.74 20.065 43.21 19.955C42.68 19.845 42.17 19.69 41.68 19.49C41.19 19.28 40.74 19.03 40.33 18.74L41.245 16.955C41.335 17.045 41.495 17.165 41.725 17.315C41.955 17.455 42.235 17.6 42.565 17.75C42.895 17.89 43.255 18.01 43.645 18.11C44.035 18.21 44.43 18.26 44.83 18.26C45.39 18.26 45.815 18.165 46.105 17.975C46.395 17.785 46.54 17.515 46.54 17.165C46.54 16.845 46.425 16.595 46.195 16.415C45.965 16.235 45.645 16.08 45.235 15.95C44.825 15.81 44.34 15.66 43.78 15.5C43.11 15.31 42.55 15.1 42.1 14.87C41.65 14.63 41.315 14.33 41.095 13.97C40.875 13.61 40.765 13.16 40.765 12.62C40.765 11.89 40.935 11.28 41.275 10.79C41.625 10.29 42.095 9.915 42.685 9.665C43.275 9.405 43.93 9.275 44.65 9.275C45.15 9.275 45.62 9.33 46.06 9.44C46.51 9.55 46.93 9.695 47.32 9.875C47.71 10.055 48.06 10.25 48.37 10.46L47.455 12.14ZM50.3092 20V9.35H54.8242C55.3142 9.35 55.7642 9.45 56.1742 9.65C56.5842 9.85 56.9392 10.12 57.2392 10.46C57.5492 10.8 57.7892 11.18 57.9592 11.6C58.1292 12.02 58.2142 12.45 58.2142 12.89C58.2142 13.49 58.0742 14.06 57.7942 14.6C57.5142 15.14 57.1292 15.58 56.6392 15.92C56.1492 16.26 55.5692 16.43 54.8992 16.43H52.3792V20H50.3092ZM52.3792 14.615H54.7792C55.0292 14.615 55.2542 14.545 55.4542 14.405C55.6542 14.265 55.8142 14.065 55.9342 13.805C56.0542 13.535 56.1142 13.23 56.1142 12.89C56.1142 12.52 56.0442 12.205 55.9042 11.945C55.7742 11.685 55.5992 11.49 55.3792 11.36C55.1692 11.23 54.9392 11.165 54.6892 11.165H52.3792V14.615ZM64.1999 20.075C63.4199 20.075 62.7099 19.925 62.0699 19.625C61.4399 19.325 60.8949 18.92 60.4349 18.41C59.9849 17.89 59.6349 17.31 59.3849 16.67C59.1349 16.02 59.0099 15.355 59.0099 14.675C59.0099 13.965 59.1399 13.29 59.3999 12.65C59.6699 12 60.0349 11.425 60.4949 10.925C60.9649 10.415 61.5149 10.015 62.1449 9.725C62.7849 9.425 63.4849 9.275 64.2449 9.275C65.0149 9.275 65.7149 9.43 66.3449 9.74C66.9849 10.05 67.5299 10.465 67.9799 10.985C68.4299 11.505 68.7799 12.085 69.0299 12.725C69.2799 13.365 69.4049 14.025 69.4049 14.705C69.4049 15.405 69.2749 16.08 69.0149 16.73C68.7549 17.37 68.3899 17.945 67.9199 18.455C67.4599 18.955 66.9099 19.35 66.2699 19.64C65.6399 19.93 64.9499 20.075 64.1999 20.075ZM61.1099 14.675C61.1099 15.135 61.1799 15.58 61.3199 16.01C61.4599 16.44 61.6599 16.825 61.9199 17.165C62.1899 17.495 62.5149 17.76 62.8949 17.96C63.2849 18.15 63.7249 18.245 64.2149 18.245C64.7149 18.245 65.1599 18.145 65.5499 17.945C65.9399 17.735 66.2649 17.46 66.5249 17.12C66.7849 16.77 66.9799 16.385 67.1099 15.965C67.2499 15.535 67.3199 15.105 67.3199 14.675C67.3199 14.215 67.2449 13.775 67.0949 13.355C66.9549 12.925 66.7499 12.545 66.4799 12.215C66.2199 11.875 65.8949 11.61 65.5049 11.42C65.1249 11.22 64.6949 11.12 64.2149 11.12C63.7049 11.12 63.2549 11.225 62.8649 11.435C62.4849 11.635 62.1649 11.905 61.9049 12.245C61.6449 12.585 61.4449 12.965 61.3049 13.385C61.1749 13.805 61.1099 14.235 61.1099 14.675ZM70.9928 20V9.35H75.7028C76.1928 9.35 76.6428 9.45 77.0528 9.65C77.4728 9.85 77.8328 10.12 78.1328 10.46C78.4428 10.8 78.6778 11.18 78.8378 11.6C79.0078 12.02 79.0928 12.45 79.0928 12.89C79.0928 13.34 79.0128 13.775 78.8528 14.195C78.7028 14.605 78.4828 14.965 78.1928 15.275C77.9028 15.585 77.5628 15.825 77.1728 15.995L79.6028 20H77.3228L75.1328 16.43H73.0628V20H70.9928ZM73.0628 14.615H75.6578C75.9178 14.615 76.1478 14.54 76.3478 14.39C76.5478 14.23 76.7078 14.02 76.8278 13.76C76.9478 13.5 77.0078 13.21 77.0078 12.89C77.0078 12.55 76.9378 12.255 76.7978 12.005C76.6578 11.745 76.4778 11.54 76.2578 11.39C76.0478 11.24 75.8178 11.165 75.5678 11.165H73.0628V14.615ZM88.8162 11.165H85.4112V20H83.3562V11.165H79.9512V9.35H88.8162V11.165ZM90.1383 20V9.35H92.2083V18.185H97.6383V20H90.1383ZM98.8981 20V9.35H100.968V20H98.8981ZM103.19 20V9.35H105.26V18.185H110.69V20H103.19ZM119.345 18.185V20H111.95V9.35H119.21V11.165H114.02V13.73H118.505V15.41H114.02V18.185H119.345Z" fill="black"/>
</svg>
