<svg width="326" height="169" viewBox="0 0 326 169" fill="none" xmlns="http://www.w3.org/2000/svg">
<path d="M41.5 41.2V40.2H40.7699L40.5475 40.8955L41.5 41.2ZM80.74 41.2L81.6929 40.8967L81.4711 40.2H80.74V41.2ZM121.42 169V170H122.788L122.373 168.697L121.42 169ZM85.78 169L84.8247 169.296L85.0426 170H85.78V169ZM78.04 143.98L78.9953 143.684L78.7774 142.98H78.04V143.98ZM44.02 143.98V142.98H43.2775L43.0627 143.691L44.02 143.98ZM36.46 169V170H37.2025L37.4173 169.289L36.46 169ZM0.64 169L-0.312502 168.695L-0.729585 170H0.64V169ZM72.46 120.58V121.58H73.7433L73.4297 120.336L72.46 120.58ZM61.12 75.58L62.0897 75.3356L60.1531 75.3247L61.12 75.58ZM49.24 120.58L48.2731 120.325L47.9417 121.58H49.24V120.58ZM41.5 42.2H80.74V40.2H41.5V42.2ZM79.7871 41.5033L120.467 169.303L122.373 168.697L81.6929 40.8967L79.7871 41.5033ZM121.42 168H85.78V170H121.42V168ZM86.7353 168.704L78.9953 143.684L77.0847 144.276L84.8247 169.296L86.7353 168.704ZM78.04 142.98H44.02V144.98H78.04V142.98ZM43.0627 143.691L35.5027 168.711L37.4173 169.289L44.9773 144.269L43.0627 143.691ZM36.46 168H0.64V170H36.46V168ZM1.5925 169.305L42.4525 41.5045L40.5475 40.8955L-0.312502 168.695L1.5925 169.305ZM73.4297 120.336L62.0897 75.3356L60.1503 75.8244L71.4903 120.824L73.4297 120.336ZM60.1531 75.3247L48.2731 120.325L50.2069 120.835L62.0869 75.8352L60.1531 75.3247ZM49.24 121.58H72.46V119.58H49.24V121.58Z" fill="#CCCCCC"/>
<path d="M116.448 75.92H120.096L134.016 110H129.408L125.376 100.016H111.072L107.088 110H102.48L116.448 75.92ZM124.416 96.656L118.272 80.912L111.936 96.656H124.416ZM164.724 101.216C164.724 102.976 164.276 104.512 163.38 105.824C162.484 107.136 161.268 108.16 159.732 108.896C158.228 109.632 156.564 110 154.74 110H138.564V75.92H155.508C157.108 75.92 158.484 76.352 159.636 77.216C160.82 78.048 161.716 79.136 162.324 80.48C162.964 81.792 163.284 83.168 163.284 84.608C163.284 86.272 162.852 87.84 161.988 89.312C161.156 90.752 159.956 91.824 158.388 92.528C160.34 93.104 161.876 94.176 162.996 95.744C164.148 97.28 164.724 99.104 164.724 101.216ZM160.356 100.448C160.356 99.392 160.116 98.416 159.636 97.52C159.188 96.624 158.564 95.904 157.764 95.36C156.996 94.816 156.1 94.544 155.076 94.544H142.884V106.256H154.74C155.796 106.256 156.74 105.984 157.572 105.44C158.436 104.896 159.108 104.192 159.588 103.328C160.1 102.432 160.356 101.472 160.356 100.448ZM142.884 79.664V91.04H153.732C154.756 91.04 155.652 90.784 156.42 90.272C157.22 89.76 157.844 89.072 158.292 88.208C158.772 87.344 159.012 86.4 159.012 85.376C159.012 84.288 158.788 83.328 158.34 82.496C157.924 81.632 157.332 80.944 156.564 80.432C155.828 79.92 154.98 79.664 154.02 79.664H142.884ZM184.592 110.24C182.192 110.24 180.016 109.76 178.064 108.8C176.112 107.84 174.416 106.544 172.976 104.912C171.568 103.248 170.48 101.392 169.712 99.344C168.944 97.264 168.56 95.136 168.56 92.96C168.56 90.688 168.96 88.528 169.76 86.48C170.592 84.4 171.728 82.56 173.168 80.96C174.64 79.328 176.352 78.048 178.304 77.12C180.256 76.16 182.384 75.68 184.688 75.68C187.088 75.68 189.264 76.176 191.216 77.168C193.168 78.16 194.848 79.488 196.256 81.152C197.664 82.816 198.752 84.672 199.52 86.72C200.288 88.768 200.672 90.864 200.672 93.008C200.672 95.28 200.272 97.456 199.472 99.536C198.672 101.584 197.536 103.424 196.064 105.056C194.624 106.656 192.928 107.92 190.976 108.848C189.024 109.776 186.896 110.24 184.592 110.24ZM172.928 92.96C172.928 94.688 173.2 96.368 173.743 98C174.32 99.6 175.12 101.024 176.144 102.272C177.168 103.52 178.4 104.512 179.84 105.248C181.28 105.984 182.88 106.352 184.64 106.352C186.464 106.352 188.096 105.968 189.536 105.2C190.976 104.432 192.192 103.408 193.184 102.128C194.208 100.848 194.976 99.408 195.488 97.808C196.032 96.208 196.304 94.592 196.304 92.96C196.304 91.232 196.016 89.568 195.44 87.968C194.896 86.368 194.096 84.944 193.04 83.696C192.016 82.416 190.784 81.424 189.344 80.72C187.936 79.984 186.368 79.616 184.64 79.616C182.816 79.616 181.184 80 179.744 80.768C178.304 81.504 177.072 82.512 176.048 83.792C175.056 85.072 174.288 86.512 173.743 88.112C173.2 89.68 172.928 91.296 172.928 92.96ZM220.738 110.24C218.018 110.24 215.73 109.776 213.874 108.848C212.018 107.888 210.53 106.608 209.41 105.008C208.29 103.376 207.474 101.536 206.962 99.488C206.45 97.44 206.194 95.328 206.194 93.152V75.92H210.514V93.152C210.514 94.816 210.674 96.448 210.994 98.048C211.346 99.616 211.906 101.024 212.674 102.272C213.442 103.52 214.482 104.512 215.794 105.248C217.106 105.984 218.738 106.352 220.69 106.352C222.674 106.352 224.322 105.984 225.634 105.248C226.946 104.48 227.986 103.472 228.754 102.224C229.522 100.944 230.066 99.52 230.386 97.952C230.738 96.384 230.914 94.784 230.914 93.152V75.92H235.234V93.152C235.234 95.456 234.962 97.648 234.418 99.728C233.906 101.776 233.074 103.584 231.922 105.152C230.77 106.72 229.266 107.968 227.41 108.896C225.586 109.792 223.362 110.24 220.738 110.24ZM267.484 79.76H255.724V110H251.404V79.76H239.644V75.92H267.484V79.76ZM154.306 166.24C152.066 166.24 149.954 165.824 147.97 164.992C145.986 164.128 144.242 162.928 142.738 161.392C141.234 159.824 140.05 157.984 139.186 155.872C138.354 153.728 137.938 151.344 137.938 148.72C137.938 146.352 138.37 144.144 139.234 142.096C140.098 140.048 141.298 138.24 142.834 136.672C144.37 135.104 146.162 133.888 148.21 133.024C150.29 132.128 152.53 131.68 154.93 131.68C158.066 131.68 160.834 132.352 163.234 133.696C165.634 135.04 167.41 136.848 168.562 139.12L162.706 143.536C161.938 142.032 160.818 140.848 159.346 139.984C157.906 139.12 156.338 138.688 154.642 138.688C153.362 138.688 152.178 138.96 151.09 139.504C150.034 140.016 149.106 140.752 148.306 141.712C147.538 142.64 146.946 143.728 146.53 144.976C146.114 146.224 145.906 147.568 145.906 149.008C145.906 150.48 146.13 151.84 146.578 153.088C147.026 154.336 147.65 155.424 148.45 156.352C149.25 157.248 150.194 157.952 151.282 158.464C152.402 158.976 153.634 159.232 154.978 159.232C156.61 159.232 158.162 158.832 159.634 158.032C161.138 157.2 162.514 155.984 163.762 154.384V162.16C161.042 164.88 157.89 166.24 154.306 166.24ZM163.282 153.904H156.658V148.192H169.81V166H163.282V153.904ZM175.014 166L175.014 131.92H190.374C191.974 131.92 193.446 132.256 194.79 132.928C196.166 133.568 197.35 134.448 198.342 135.568C199.334 136.656 200.102 137.888 200.646 139.264C201.222 140.64 201.51 142.032 201.51 143.44C201.51 144.848 201.286 146.192 200.838 147.472C200.39 148.72 199.75 149.856 198.918 150.88C198.086 151.872 197.094 152.688 195.942 153.328L203.43 166H194.742L188.214 155.008H182.886V166H175.014ZM182.886 148.144H190.086C190.726 148.144 191.286 147.952 191.766 147.568C192.278 147.152 192.694 146.592 193.014 145.888C193.334 145.184 193.494 144.368 193.494 143.44C193.494 142.512 193.302 141.712 192.918 141.04C192.566 140.336 192.118 139.792 191.574 139.408C191.03 139.024 190.454 138.832 189.846 138.832H182.886V148.144ZM221.77 166.288C219.21 166.288 216.89 165.808 214.81 164.848C212.762 163.856 210.986 162.544 209.482 160.912C208.01 159.248 206.874 157.392 206.074 155.344C205.274 153.264 204.874 151.12 204.874 148.912C204.874 146.64 205.29 144.48 206.122 142.432C206.986 140.384 208.17 138.56 209.674 136.96C211.21 135.328 213.018 134.048 215.098 133.12C217.178 132.192 219.45 131.728 221.914 131.728C224.442 131.728 226.73 132.224 228.778 133.216C230.858 134.176 232.634 135.488 234.106 137.152C235.61 138.816 236.762 140.688 237.562 142.768C238.362 144.816 238.762 146.912 238.762 149.056C238.762 151.328 238.346 153.488 237.514 155.536C236.682 157.584 235.498 159.424 233.962 161.056C232.426 162.656 230.618 163.936 228.538 164.896C226.49 165.824 224.234 166.288 221.77 166.288ZM212.89 149.008C212.89 150.32 213.082 151.6 213.466 152.848C213.85 154.064 214.41 155.152 215.146 156.112C215.914 157.072 216.858 157.84 217.978 158.416C219.098 158.992 220.378 159.28 221.818 159.28C223.322 159.28 224.634 158.992 225.754 158.416C226.874 157.808 227.802 157.008 228.538 156.016C229.274 155.024 229.818 153.92 230.17 152.704C230.554 151.456 230.746 150.192 230.746 148.912C230.746 147.6 230.554 146.336 230.17 145.12C229.786 143.904 229.21 142.816 228.442 141.856C227.674 140.864 226.73 140.096 225.61 139.552C224.49 139.008 223.226 138.736 221.818 138.736C220.314 138.736 219.002 139.024 217.882 139.6C216.794 140.176 215.866 140.96 215.098 141.952C214.362 142.912 213.802 144.016 213.418 145.264C213.066 146.48 212.89 147.728 212.89 149.008ZM257.951 166.288C255.231 166.288 252.911 165.84 250.991 164.944C249.071 164.016 247.503 162.768 246.287 161.2C245.103 159.6 244.223 157.792 243.647 155.776C243.103 153.728 242.831 151.584 242.831 149.344V131.92H250.703V149.344C250.703 150.624 250.831 151.872 251.087 153.088C251.343 154.272 251.759 155.328 252.335 156.256C252.911 157.184 253.647 157.92 254.543 158.464C255.471 159.008 256.607 159.28 257.951 159.28C259.327 159.28 260.479 159.008 261.407 158.464C262.335 157.888 263.071 157.136 263.615 156.208C264.159 155.248 264.559 154.176 264.815 152.992C265.071 151.808 265.199 150.592 265.199 149.344V131.92H273.071V149.344C273.071 151.712 272.767 153.92 272.159 155.968C271.583 158.016 270.687 159.824 269.471 161.392C268.255 162.928 266.687 164.128 264.767 164.992C262.879 165.856 260.607 166.288 257.951 166.288ZM279.17 166V131.92H293.714C295.346 131.92 296.834 132.256 298.178 132.928C299.554 133.568 300.738 134.448 301.73 135.568C302.722 136.656 303.49 137.888 304.034 139.264C304.578 140.64 304.85 142.048 304.85 143.488C304.85 145.44 304.386 147.296 303.458 149.056C302.562 150.816 301.298 152.256 299.666 153.376C298.066 154.464 296.162 155.008 293.954 155.008H287.042V166H279.17ZM287.042 148.144H293.474C294.082 148.144 294.642 147.968 295.154 147.616C295.666 147.264 296.082 146.736 296.402 146.032C296.722 145.328 296.882 144.464 296.882 143.44C296.882 142.384 296.69 141.52 296.306 140.848C295.954 140.144 295.49 139.632 294.914 139.312C294.37 138.992 293.794 138.832 293.186 138.832H287.042V148.144Z" fill="black"/>
</svg>
